<?xml version="1.0"?>
<!DOCTYPE svg PUBLIC "-//W3C//DTD SVG 1.1//EN" "http://www.w3.org/Graphics/SVG/1.1/DTD/svg11.dtd">
<!-- Uploaded to: SVG Repo, www.svgrepo.com, Transformed by: SVG Repo Mixer Tools -->
<svg xmlns="http://www.w3.org/2000/svg" xmlns:xlink="http://www.w3.org/1999/xlink" width="800px" height="800px" viewBox="0 0 36 36" aria-hidden="true" role="img" class="iconify iconify--twemoji" preserveAspectRatio="xMidYMid meet" fill="#000000" style="background-color:transparent;">
  <g id="SVGRepo_bgCarrier" stroke-width="0"/>
  <g id="SVGRepo_tracerCarrier" stroke-linecap="round" stroke-linejoin="round"/>
  <g id="SVGRepo_iconCarrier">
    <path fill="none" d="M36 32a4 4 0 0 1-4 4H4a4 4 0 0 1-4-4V4a4 4 0 0 1 4-4h28a4 4 0 0 1 4 4v28z"/>
    <path fill="#2d86fb" d="M19.723 6.552c2.264 0 6.666.744 6.666 3.473c0 1.116-.775 2.077-1.922 2.077c-1.272 0-2.139-1.085-4.744-1.085c-3.844 0-5.829 3.256-5.829 7.038c0 3.689 2.015 6.852 5.829 6.852c2.605 0 3.658-1.302 4.93-1.302c1.396 0 2.047 1.395 2.047 2.107c0 2.977-4.682 3.659-6.976 3.659c-6.294 0-10.666-4.992-10.666-11.41c-.001-6.448 4.34-11.409 10.665-11.409z"/>
  </g>
</svg>
